<svg xmlns="http://www.w3.org/2000/svg" xmlns:xlink="http://www.w3.org/1999/xlink" width="150" height="59.24" viewBox="0 0 150 59.24"><defs><clipPath id="a"><rect width="150" height="59.239" fill="#fbf7ee"/></clipPath></defs><g transform="translate(0 0)"><path d="M194.818,10.319l4.789,4.788,7.247-7.246L199.607.615,194.818,5.4l-4.79-4.79-7.247,7.247,7.247,7.246Z" transform="translate(-60.305 -0.203)" fill="#fbf7ee"/><path d="M120.149,0,110.4,9.673V43.913h4.924l9.745-9.745V0Z" transform="translate(-36.425)" fill="#fbf7ee"/><rect width="10.249" height="10.249" transform="matrix(0.707, -0.707, 0.707, 0.707, 52.835, 7.39)" fill="#fbf7ee"/><g transform="translate(0 0)"><g clip-path="url(#a)"><path d="M181.921,24.647h-1.954c-7.373,0-10.271,5.839-10.271,10.271V42.89h18.952c-1.827,2.568-5.482,4.584-10.492,4.584H157.612V32.883l-8.239-8.236h-2.032c-7.373,0-10.287,4.6-10.287,10.271V47.474H156.4c-1.419,2.144-4.474,4.569-9.406,4.569h-22.7l15.337,15.328A32.7,32.7,0,0,0,156.4,52.516v9.452H180.66l9.579-14.494V32.966Z" transform="translate(-41.008 -8.132)" fill="#fbf7ee"/><path d="M59.981,16.518c-7.272,0-10.233,5.839-10.233,10.273v7.966H68.7c-1.854,2.541-5.494,4.6-10.507,4.6H37.77A40.124,40.124,0,0,0,42.234,23.7c.069-1.031.137-2.129.137-3.228V.008H37.427L27.675,9.76v34.2H0L15.42,59.241A40.93,40.93,0,0,0,34.885,44.1v9.752H60.667l9.615-14.49V24.868l-8.35-8.35Z" transform="translate(0 -0.003)" fill="#fbf7ee"/></g></g></g></svg>