<svg xmlns="http://www.w3.org/2000/svg" xmlns:xlink="http://www.w3.org/1999/xlink" width="400" height="91.139" viewBox="0 0 400 91.139"><defs><clipPath id="a"><rect width="400" height="91.138" fill="#5f757c"/></clipPath></defs><path d="M201.3,15.545l7.368,7.367,11.149-11.148L208.667.615,201.3,7.983,193.93.615,182.781,11.764,193.93,22.912Z" transform="translate(5.643 0.019)" fill="#5f757c"/><path d="M125.4,0,110.4,14.882V67.558h7.576l14.993-14.993V0Z" transform="translate(3.409 0)" fill="#5f757c"/><rect width="15.767" height="15.767" transform="matrix(0.707, -0.707, 0.707, 0.707, 81.285, 11.37)" fill="#5f757c"/><g transform="translate(0 0.001)"><g clip-path="url(#a)"><path d="M212.951,24.647h-3.006c-11.343,0-15.8,8.983-15.8,15.8V52.714H223.3c-2.811,3.95-8.434,7.052-16.141,7.052h-31.6V37.317l-12.676-12.67h-3.127c-11.343,0-15.826,7.077-15.826,15.8V59.766h29.762c-2.182,3.3-6.883,7.03-14.47,7.03H124.294l23.595,23.582c8.3-3.224,19.448-10.616,25.8-22.854V82.065h37.324l14.736-22.3V37.445Z" transform="translate(3.838 0.76)" fill="#5f757c"/><path d="M92.279,25.408c-11.187,0-15.742,8.983-15.742,15.805V53.468H105.7c-2.852,3.909-8.452,7.078-16.165,7.078H58.108a61.729,61.729,0,0,0,6.867-24.087c.106-1.585.211-3.276.211-4.967V.008H57.58l-15,15V67.626H0l23.722,23.51a62.97,62.97,0,0,0,29.947-23.3v15H93.334l14.792-22.292V38.254L95.28,25.408Z" transform="translate(0 0)" fill="#5f757c"/><path d="M243.769,56.6,241.9,55.075l.975-1.209,2.226,1.795a6.35,6.35,0,0,0,1.562-4.471c0-3.338-1.756-5.856-5.056-5.856s-5.076,2.518-5.076,5.856c0,3.318,1.776,5.857,5.076,5.857a5.034,5.034,0,0,0,2.167-.448m1.524,1.231a7.244,7.244,0,0,1-3.691.936c-4.394,0-7.108-3.241-7.108-7.576,0-4.354,2.714-7.576,7.108-7.576,4.373,0,7.107,3.221,7.107,7.576a7.874,7.874,0,0,1-2.147,5.663l2.09,1.679-1,1.21Z" transform="translate(7.24 1.346)" fill="#5f757c"/><path d="M253.621,52.645h4.646l-1.387-4.062C256.392,47.179,256,45.5,256,45.5h-.059s-.43,1.739-.9,3.085Zm1.229-8.729h2.227l5.349,14.529h-2.185L258.8,54.206h-5.721l-1.484,4.239h-2.05Z" transform="translate(7.704 1.355)" fill="#5f757c"/><path d="M261.6,43.916h2.089l2.091,8.554c.349,1.425.682,3.845.682,3.845h.038s.392-2.44.763-3.866l2.343-8.534h2.108l2.265,8.534c.371,1.426.763,3.866.763,3.866h.038s.371-2.42.723-3.845l2.166-8.554h2.05l-4.041,14.529h-1.933l-2.381-9.294c-.333-1.29-.685-3.632-.685-3.632h-.038s-.371,2.342-.7,3.612l-2.559,9.314h-1.991Z" transform="translate(8.077 1.355)" fill="#5f757c"/><path d="M282.756,52.645H287.4l-1.387-4.062c-.489-1.405-.878-3.085-.878-3.085h-.059s-.43,1.739-.9,3.085Zm1.229-8.729h2.227l5.349,14.529h-2.185l-1.446-4.239h-5.72l-1.484,4.239h-2.05Z" transform="translate(8.604 1.355)" fill="#5f757c"/><path d="M292.728,43.916h9.94v1.758h-7.946V50.03h6.618v1.7h-6.618v6.717h-1.994Z" transform="translate(9.038 1.355)" fill="#5f757c"/><rect width="1.992" height="14.529" transform="translate(313.498 45.271)" fill="#5f757c"/><path d="M308.775,43.916h1.993V56.629h7.517v1.816h-9.51Z" transform="translate(9.533 1.355)" fill="#5f757c"/><path d="M240.18,79.088c3.279,0,4.628-2.128,4.628-5.467s-1.211-5.584-4.511-5.584h-3.261V79.088ZM235.024,66.3h5.371c4.334,0,6.483,2.97,6.483,7.323,0,4.336-2.266,7.2-6.619,7.2h-5.235Z" transform="translate(7.256 2.046)" fill="#5f757c"/><path d="M248.715,66.3h10.33v1.758h-8.337V72.45h7.536v1.66h-7.536v4.9h8.551v1.816H248.715Z" transform="translate(7.679 2.046)" fill="#5f757c"/><path d="M260.118,66.3h2.147l3.182,9.686c.352,1.054.86,3.1.86,3.1h.039s.507-2.089.839-3.1L270.33,66.3h2.07l-5.077,14.528h-2.188Z" transform="translate(8.031 2.046)" fill="#5f757c"/><path d="M273.566,66.3H283.9v1.758H275.56V72.45H283.1v1.66H275.56v4.9h8.551v1.816H273.566Z" transform="translate(8.446 2.046)" fill="#5f757c"/><path d="M285.638,66.3h1.994V79.01h7.516v1.816h-9.51Z" transform="translate(8.819 2.046)" fill="#5f757c"/><path d="M307.619,73.572c0-3.338-1.756-5.857-5.055-5.857s-5.077,2.519-5.077,5.857c0,3.319,1.777,5.819,5.077,5.819s5.055-2.5,5.055-5.819m-12.163,0c0-4.354,2.714-7.576,7.108-7.576,4.373,0,7.127,3.221,7.127,7.576,0,4.335-2.755,7.577-7.127,7.577-4.394,0-7.108-3.242-7.108-7.577" transform="translate(9.122 2.037)" fill="#5f757c"/><path d="M313.41,73.232h3.709c1.972,0,2.91-1,2.91-2.617,0-1.7-1.035-2.577-2.832-2.577H313.41ZM311.4,66.3h6.113a4.173,4.173,0,0,1,4.51,4.258c0,2.676-1.562,4.3-4.706,4.3h-3.9v5.974H311.4Z" transform="translate(9.614 2.046)" fill="#5f757c"/><path d="M323.327,66.3h2.579l3.026,7.89c.586,1.581,1.465,4.549,1.465,4.549h.038s.9-2.95,1.483-4.549l2.969-7.89h2.656V80.826h-1.913V72.039c0-1.289.115-3.729.115-3.729h-.037s-.587,2.185-1.016,3.319l-3.534,9.2H329.6l-3.534-9.2c-.411-1.134-1.015-3.319-1.015-3.319h-.04s.118,2.44.118,3.729v8.787h-1.8Z" transform="translate(9.983 2.046)" fill="#5f757c"/><path d="M339.857,66.3h10.33v1.758h-8.337V72.45h7.536v1.66h-7.536v4.9H350.4v1.816H339.857Z" transform="translate(10.493 2.046)" fill="#5f757c"/><path d="M351.929,66.3h2.091l5.955,9.1c.7,1.074,1.621,2.889,1.621,2.889h.059s-.137-1.893-.137-3.1V66.3h1.874V80.826h-2.07l-5.936-9.1c-.7-1.095-1.659-2.871-1.659-2.871h-.04s.117,1.894.117,3.066v8.9h-1.875Z" transform="translate(10.866 2.046)" fill="#5f757c"/><path d="M364.717,66.3h11.559v1.758h-4.784v12.77h-2.01V68.056h-4.765Z" transform="translate(11.261 2.046)" fill="#5f757c"/><path d="M376.73,76.128H378.7c.234,2.188,1.679,3.4,4.316,3.4,1.933,0,3.338-.859,3.338-2.616,0-1.894-1.679-2.343-4.217-2.909-2.6-.547-4.8-1.288-4.8-4.08,0-2.442,2.05-3.886,5.038-3.886,3.574,0,5.174,1.8,5.526,4.276h-1.932c-.255-1.758-1.524-2.714-3.574-2.714-1.913,0-3.163.781-3.163,2.226,0,1.582,1.581,2.032,3.768,2.479,2.812.568,5.371,1.289,5.371,4.532,0,2.752-2.265,4.295-5.409,4.295-4.062,0-6.074-2.226-6.23-5" transform="translate(11.631 2.038)" fill="#5f757c"/></g></g></svg>